<svg width="25" height="24" viewBox="0 0 25 24" fill="none" xmlns="http://www.w3.org/2000/svg">
<g id="vuesax/bold/briefcase">
<path id="Vector" d="M21.34 6.98002C20.49 6.04002 19.07 5.57002 17.01 5.57002H16.77V5.53002C16.77 3.85002 16.77 1.77002 13.01 1.77002H11.49C7.73004 1.77002 7.73004 3.86002 7.73004 5.53002V5.58002H7.49004C5.42004 5.58002 4.01004 6.05002 3.16004 6.99002C2.17004 8.09002 2.20004 9.57002 2.30004 10.58L2.31004 10.65L2.38749 11.4633C2.40176 11.6131 2.48242 11.7484 2.60831 11.8307C2.84812 11.9877 3.24946 12.2464 3.49004 12.38C3.63004 12.47 3.78004 12.55 3.93004 12.63C5.64004 13.57 7.52004 14.2 9.43004 14.51C9.52004 15.45 9.93004 16.55 12.12 16.55C14.31 16.55 14.74 15.46 14.81 14.49C16.85 14.16 18.82 13.45 20.6 12.41C20.66 12.38 20.7 12.35 20.75 12.32C21.1468 12.0958 21.5583 11.8195 21.9335 11.5489C22.0465 11.4673 22.1188 11.3413 22.1342 11.2028L22.15 11.06L22.2 10.59C22.21 10.53 22.21 10.48 22.22 10.41C22.3 9.40002 22.28 8.02002 21.34 6.98002ZM13.34 13.83C13.34 14.89 13.34 15.05 12.11 15.05C10.88 15.05 10.88 14.86 10.88 13.84V12.58H13.34V13.83ZM9.16004 5.57002V5.53002C9.16004 3.83002 9.16004 3.20002 11.49 3.20002H13.01C15.34 3.20002 15.34 3.84002 15.34 5.53002V5.58002H9.16004V5.57002Z" fill="white"/>
<path id="Vector_2" d="M21.1233 13.7341C21.4769 13.5659 21.8842 13.8462 21.8488 14.2361L21.4898 18.19C21.2798 20.19 20.4598 22.23 16.0598 22.23H8.43984C4.03984 22.23 3.21984 20.19 3.00984 18.2L2.66913 14.4521C2.63409 14.0667 3.03205 13.7867 3.38468 13.9463C4.5241 14.4618 6.62724 15.3764 7.92641 15.7166C8.09072 15.7597 8.22361 15.8773 8.29556 16.0311C8.90253 17.3292 10.219 18.02 12.1198 18.02C14.002 18.02 15.335 17.3026 15.944 16.0013C16.016 15.8474 16.1491 15.7298 16.3135 15.6865C17.693 15.3235 19.9316 14.3012 21.1233 13.7341Z" fill="white"/>
</g>
</svg>
