<svg width="20" height="20" viewBox="0 0 20 20" fill="none" xmlns="http://www.w3.org/2000/svg">
<path d="M4.1665 12.4998V6.6665" stroke="#757575" stroke-width="1.25" stroke-linecap="round" stroke-linejoin="round"/>
<path d="M4.37484 18.3332C5.87061 18.3332 7.08317 17.1206 7.08317 15.6248C7.08317 14.1291 5.87061 12.9165 4.37484 12.9165C2.87907 12.9165 1.6665 14.1291 1.6665 15.6248C1.6665 17.1206 2.87907 18.3332 4.37484 18.3332Z" stroke="#757575" stroke-width="1.25" stroke-linecap="round" stroke-linejoin="round"/>
<path d="M4.1665 6.6665C5.54722 6.6665 6.6665 5.54722 6.6665 4.1665C6.6665 2.78579 5.54722 1.6665 4.1665 1.6665C2.78579 1.6665 1.6665 2.78579 1.6665 4.1665C1.6665 5.54722 2.78579 6.6665 4.1665 6.6665Z" stroke="#757575" stroke-width="1.25" stroke-linecap="round" stroke-linejoin="round"/>
<path d="M15.8335 6.6665C17.2142 6.6665 18.3335 5.54722 18.3335 4.1665C18.3335 2.78579 17.2142 1.6665 15.8335 1.6665C14.4528 1.6665 13.3335 2.78579 13.3335 4.1665C13.3335 5.54722 14.4528 6.6665 15.8335 6.6665Z" stroke="#757575" stroke-width="1.25" stroke-linecap="round" stroke-linejoin="round"/>
<path d="M4.2749 12.5C4.6499 11.0416 5.98323 9.9583 7.55823 9.96663L10.4166 9.97498C12.5999 9.98331 14.4582 8.5833 15.1416 6.6333" stroke="#757575" stroke-width="1.25" stroke-linecap="round" stroke-linejoin="round"/>
</svg>
